# xmcd
#
# Track frame offsets: 
#        150
#        13995
#        29902
#        43394
#        65114
#        78981
#        106303
#
# Disc length: 1699 seconds
#
# Revision: 0
# Processed by: cddbd v1.5.2PL0 Copyright (c) Steve Scherf et al.
# Submitted via: ExactAudioCopy v1.0b1
#
DISCID=6506a107
DTITLE=Kuningas Pähkinä and Ilari Audio - Musaa
DYEAR=2011
DGENRE=Rap
TTITLE0=Metsien Gentlemanni
TTITLE1=Lännest (feat. Setä Tamu)
TTITLE2=Musaa
TTITLE3=Kuume (feat. Notkea Rotta and Annamaija Keränen)
TTITLE4=Keski-Suomi Tissi-Booty (Remix)
TTITLE5=Landespede (feat. Hannibal, Jodarok, Panama Rayo and Soppa)
TTITLE6=Ykä Leino (feat. Hannibal, Jaskamaski and Soppa)
EXTD=
EXTT0=
EXTT1=
EXTT2=
EXTT3=
EXTT4=
EXTT5=
EXTT6=
PLAYORDER=
